<svg width="7" height="12" xmlns="http://www.w3.org/2000/svg"><path fill="#C1C6CE" d="M.15889 6.34125l5.90872 5.50995c.10269.0953.24176.1488.38675.1488.14498 0 .28405-.0535.38675-.1488.05035-.0464.09031-.1017.11758-.1627A.46983.46983 0 007 11.4962c0-.066-.01404-.1313-.04131-.1922-.02727-.061-.06723-.1163-.11758-.1628L1.3084 6.00125l5.53271-5.17c.05035-.04648.09031-.10179.11758-.16272C6.98596.60762 7 .54225 7 .47625s-.01404-.13136-.04131-.1923c-.02727-.06092-.06723-.11622-.11758-.1627-.10754-.08482-.24605-.1278-.38675-.12A.53763.53763 0 006.2493.0392c-.06476.02584-.12299.064-.17095.11204l-5.91946 5.48c-.05035.04648-.0903.10178-.11758.16271C.01404 5.85489 0 5.92024 0 5.98625c0 .066.01404.13136.04131.19229.02727.06093.06723.11623.11758.16271z"/></svg>
